<?xml version="1.0" encoding="utf-8"?>
<!-- Generator: Adobe Illustrator 28.0.0, SVG Export Plug-In . SVG Version: 6.00 Build 0)  -->
<svg version="1.1" id="Layer_1" xmlns="http://www.w3.org/2000/svg" xmlns:xlink="http://www.w3.org/1999/xlink" x="0px" y="0px"
	 viewBox="0 0 24 24" style="enable-background:new 0 0 24 24;" xml:space="preserve">
<style type="text/css">
	.st0{fill:#FFFFFF;}
	.st1{fill:none;stroke:#FFFFFF;stroke-width:2;stroke-linecap:round;stroke-miterlimit:10;}
</style>
<path class="st0" d="M17,3c1.1,0,2,0.4,2.8,1.2S21,5.9,21,7c0,0.2,0,0.4,0,0.7s-0.1,0.7-0.1,1.1l-1.4,10.1c-0.1,0.6-0.4,1.1-0.9,1.5
	S17.5,21,16.9,21c-0.4,0-0.7-0.1-1.1-0.2c-0.3-0.2-0.6-0.4-0.8-0.7l-2.7-3.9c0-0.1-0.1-0.1-0.2-0.1c-0.1,0-0.2,0-0.2,0
	c-0.1,0-0.2,0.1-0.4,0.2L8.9,20c-0.2,0.3-0.5,0.6-0.9,0.8C7.8,21,7.4,21,7,21c-0.6,0-1.2-0.2-1.7-0.6s-0.7-1-0.8-1.6l-1.3-10
	c0-0.4-0.1-0.8-0.1-1.1s0-0.6,0-0.7c0-1.1,0.4-2,1.2-2.8S5.8,3,6.9,3C7.5,3,8,3.1,8.3,3.2s0.7,0.3,1,0.5s0.7,0.4,1.1,0.5
	s0.9,0.2,1.5,0.2s1.1-0.1,1.5-0.2s0.7-0.3,1.1-0.5c0.3-0.2,0.7-0.4,1-0.5C15.8,3.1,16.4,3,17,3z M17,5c-0.4,0-0.7,0.1-1,0.2
	c-0.3,0.1-0.6,0.3-1,0.5s-0.8,0.4-1.2,0.5S12.7,6.5,12,6.5s-1.3-0.1-1.8-0.2C9.6,6.1,9.2,6,8.9,5.8c-0.4-0.2-0.7-0.4-1-0.5
	C7.6,5.1,7.3,5,6.9,5c-0.5,0-1,0.2-1.4,0.6S4.9,6.5,4.9,7c0,0.1,0,0.3,0,0.6C4.9,7.9,5,8.1,5,8.5l1.4,10.1c0,0.1,0.1,0.2,0.2,0.3
	C6.7,19,6.8,19,6.9,19s0.2,0,0.2,0c0.1,0,0.1-0.1,0.2-0.2l2.5-3.7c0.2-0.3,0.5-0.6,0.9-0.8s0.8-0.3,1.2-0.3s0.8,0.1,1.2,0.3
	s0.7,0.5,0.9,0.8l2.6,3.8l0.1,0.1c0.1,0,0.1,0,0.2,0s0.3,0,0.4-0.1s0.2-0.2,0.2-0.3L19,8.4c-0.1-0.3,0-0.6,0-0.8c0-0.2,0-0.4,0-0.6
	c0-0.5-0.2-1-0.6-1.4C18,5.2,17.6,5,17,5z"/>
<line class="st1" x1="1.4" y1="10.7" x2="22.6" y2="10.7"/>
</svg>
