<svg width="26" height="27" viewBox="0 0 26 27" fill="none" xmlns="http://www.w3.org/2000/svg">
<path d="M16.7915 8.625L20.5831 4.83333M22.7498 2.66666L20.5831 4.83333L22.7498 2.66666ZM12.339 13.0775C12.8983 13.6294 13.343 14.2865 13.6474 15.011C13.9517 15.7355 14.1098 16.513 14.1124 17.2988C14.1151 18.0847 13.9622 18.8632 13.6627 19.5897C13.3632 20.3162 12.923 20.9763 12.3673 21.532C11.8116 22.0876 11.1516 22.5279 10.4251 22.8274C9.69855 23.1269 8.91998 23.2797 8.13416 23.2771C7.34835 23.2745 6.57081 23.1164 5.84633 22.8121C5.12185 22.5077 4.46473 22.063 3.91281 21.5037C2.82745 20.3799 2.22688 18.8748 2.24046 17.3126C2.25404 15.7503 2.88067 14.2559 3.98539 13.1512C5.09011 12.0464 6.58454 11.4198 8.14679 11.4062C9.70905 11.3927 11.2141 11.9932 12.3379 13.0786L12.339 13.0775ZM12.339 13.0775L16.7915 8.625L12.339 13.0775ZM16.7915 8.625L20.0415 11.875L23.8331 8.08333L20.5831 4.83333L16.7915 8.625Z" stroke="#3E8CFF" stroke-width="2" stroke-linecap="round" stroke-linejoin="round"/>
</svg>
