<?xml version="1.0" encoding="utf-8"?>
<!-- Generator: Adobe Illustrator 28.0.0, SVG Export Plug-In . SVG Version: 6.00 Build 0)  -->
<svg version="1.1" id="Layer_1" xmlns="http://www.w3.org/2000/svg" xmlns:xlink="http://www.w3.org/1999/xlink" x="0px" y="0px"
	 viewBox="0 0 24 24" style="enable-background:new 0 0 24 24;" xml:space="preserve">
<style type="text/css">
	.st0{fill:#FFFFFF;}
</style>
<path class="st0" d="M17,2.1c1.1,0,2,0.4,2.8,1.2S21,5,21,6.1c0,0.2,0,0.4,0,0.7c0,0.3-0.1,0.7-0.1,1.1L19.5,18
	c-0.1,0.6-0.4,1.1-0.9,1.5c-0.5,0.4-1.1,0.6-1.7,0.6c-0.4,0-0.7-0.1-1.1-0.2c-0.3-0.2-0.6-0.4-0.8-0.7l-2.7-3.9
	c0-0.1-0.1-0.1-0.2-0.1c-0.1,0-0.2,0-0.2,0c-0.1,0-0.2,0.1-0.4,0.2L9,19.1c-0.2,0.3-0.5,0.6-0.9,0.8c-0.3,0.2-0.7,0.3-1.1,0.3
	c-0.6,0-1.2-0.2-1.7-0.6S4.6,18.6,4.5,18L3.2,7.9c0-0.4-0.1-0.8-0.1-1.1c0-0.3,0-0.6,0-0.7c0-1.1,0.4-2,1.2-2.8S5.9,2.1,7,2.1
	c0.6,0,1.1,0.1,1.4,0.2s0.7,0.3,1,0.5c0.3,0.2,0.7,0.4,1.1,0.5s0.9,0.2,1.5,0.2c0.6,0,1.1-0.1,1.5-0.2s0.7-0.3,1.1-0.5
	c0.3-0.2,0.7-0.4,1-0.5C15.9,2.2,16.4,2.1,17,2.1z M17,4.1c-0.4,0-0.7,0.1-1,0.2s-0.6,0.3-1,0.5c-0.4,0.2-0.8,0.4-1.2,0.5
	S12.7,5.6,12,5.6s-1.3-0.1-1.8-0.2C9.7,5.2,9.3,5.1,9,4.9C8.6,4.7,8.3,4.5,8,4.4C7.7,4.2,7.4,4.1,7,4.1c-0.5,0-1,0.2-1.4,0.6
	C5.2,5.1,5,5.6,5,6.1c0,0.1,0,0.3,0,0.6s0.1,0.5,0.1,0.9l1.4,10.1c0,0.1,0.1,0.2,0.2,0.3c0.1,0.1,0.2,0.1,0.3,0.1c0.1,0,0.2,0,0.2,0
	c0.1,0,0.1-0.1,0.2-0.2l2.5-3.7c0.2-0.3,0.5-0.6,0.9-0.8c0.4-0.2,0.8-0.3,1.2-0.3c0.4,0,0.8,0.1,1.2,0.3c0.4,0.2,0.7,0.5,0.9,0.8
	l2.6,3.8c0,0,0.1,0.1,0.1,0.1c0.1,0,0.1,0,0.2,0c0.1,0,0.3,0,0.4-0.1c0.1-0.1,0.2-0.2,0.2-0.3l1.4-10.2C18.9,7.2,19,6.9,19,6.7
	s0-0.4,0-0.6c0-0.5-0.2-1-0.6-1.4C18,4.3,17.6,4.1,17,4.1z"/>
</svg>
